Coordinates
version=1
nRows=26
nColumns=24
inDegrees=yes

Units are S.I. units (second, meters, Newtons, ...)
Angles are in degrees.

endheader
time	pelvis_tilt	pelvis_list	pelvis_rotation	pelvis_tx	pelvis_ty	pelvis_tz	hip_flexion_r	hip_adduction_r	hip_rotation_r	knee_angle_r	ankle_angle_r	subtalar_angle_r	mtp_angle_r	hip_flexion_l	hip_adduction_l	hip_rotation_l	knee_angle_l	ankle_angle_l	subtalar_angle_l	mtp_angle_l	lumbar_extension	lumbar_bending	lumbar_rotation
      0.85033333	      4.44975714	     -4.39290020	      8.83270216	     -0.50471847	      1.03501043	      0.34874902	      6.47477478	     10.70976242	     -2.14229730	    -15.59684085	      3.39823380	    -12.72921954	      7.04487032	     15.60456558	     -8.45722411	      0.75583036	    -68.12814315	     -2.28790329	     -5.80940726	     -0.40533738	     -6.64112922	      1.25025021	     -1.94660931
      0.85450000	      4.45145413	     -4.29281267	      8.78265411	     -0.49992494	      1.03580519	      0.34904219	      6.00569490	     10.65682063	     -2.10759710	    -15.29590594	      3.50545445	    -12.58514024	      7.03900588	     16.05928117	     -8.26952140	      0.74518776	    -67.69187492	     -1.56023502	     -5.75027076	     -0.45194946	     -6.71825495	      1.12999178	     -1.83853310
      0.85866667	      4.45079240	     -4.19798394	      8.71123791	     -0.49514654	      1.03654782	      0.34935235	      5.54735220	     10.60763915	     -2.06988244	    -15.01167364	      3.64899769	    -12.39148595	      7.03268024	     16.50088853	     -8.09122030	      0.71423052	    -67.20994126	     -0.87193005	     -5.67336616	     -0.51029636	     -6.78671764	      1.01137674	     -1.67033064
      0.86283333	      4.44819870	     -4.10623218	      8.62465264	     -0.49034073	      1.03728966	      0.34965911	      5.08505266	     10.55922795	     -2.02528019	    -14.72073469	      3.79838112	    -12.17619026	      7.02202381	     16.92184145	     -7.91792540	      0.66700048	    -66.66903668	     -0.24381133	     -5.62915180	     -0.58813034	     -6.83417711	      0.89217448	     -1.46459159
      0.86700000	      4.43176872	     -3.99599470	      8.51224793	     -0.48558269	      1.03798340	      0.34997255	      4.64823451	     10.48841667	     -1.94818019	    -14.45596715	      3.92213101	    -11.99912974	      7.01341120	     17.33442777	     -7.71646164	      0.60367915	    -66.07365597	      0.34532497	     -5.63105201	     -0.63973629	     -6.90264543	      0.76692500	     -1.29526028
      0.87116667	      4.40827413	     -3.91071699	      8.39409964	     -0.48078778	      1.03861949	      0.35029836	      4.21270549	     10.44428095	     -1.87247124	    -14.16911164	      4.02887586	    -11.84697347	      7.00896536	     17.74557727	     -7.55273746	      0.52173419	    -65.43865558	      0.88228092	     -5.67777159	     -0.66357795	     -6.91901885	      0.63854956	     -1.16350106
      0.87533333	      4.43715233	     -3.81241095	      8.25358681	     -0.47602832	      1.03931702	      0.35063256	      3.72083243	     10.39227288	     -1.76081671	    -13.89309998	      4.20019054	    -11.60661095	      6.99350708	     18.07100474	     -7.38372195	      0.43187229	    -64.74098229	      1.40139231	     -5.58761744	     -0.73207770	     -7.02741211	      0.54359814	     -0.82087827
      0.87950000	      4.42363161	     -3.72215682	      8.09532660	     -0.47126880	      1.03991592	      0.35098082	      3.28011945	     10.34165885	     -1.63145909	    -13.62353108	      4.33192007	    -11.43235583	      6.97522731	     18.42789377	     -7.22139016	      0.32067819	    -63.99901215	      1.87335298	     -5.59421725	     -0.79267612	     -7.07411310	      0.43259720	     -0.57060615
      0.88366667	      4.38797968	     -3.62457500	      7.91263185	     -0.46652635	      1.04045221	      0.35134075	      2.87408811	     10.27793881	     -1.47952139	    -13.37945517	      4.43718447	    -11.28489404	      6.96420324	     18.78604336	     -7.04962317	      0.18895577	    -63.20637134	      2.31527793	     -5.64277227	     -0.82259730	     -7.11234562	      0.31873753	     -0.39221538
      0.88783333	      4.40303893	     -3.53556687	      7.73028102	     -0.46175562	      1.04103809	      0.35171209	      2.39623032	     10.23059928	     -1.32129137	    -13.09875707	      4.58254865	    -11.10057401	      6.94135158	     19.06965898	     -6.90457406	      0.04927163	    -62.35924953	      2.70004953	     -5.64393065	     -0.87587669	     -7.17679955	      0.20977633	     -0.04144592
      0.89200000	      4.34169653	     -3.46579276	      7.53957577	     -0.45699228	      1.04144976	      0.35208688	      2.01447266	     10.19128334	     -1.15441245	    -12.83466561	      4.66479048	    -10.96585500	      6.93436842	     19.43212723	     -6.76860320	     -0.09118835	    -61.48578001	      3.06934438	     -5.72766358	     -0.88864630	     -7.15643902	      0.10437814	      0.07385226
      0.89616667	      4.35857291	     -3.35431616	      7.29501069	     -0.45226768	      1.04199560	      0.35250625	      1.55730156	     10.11441795	     -0.92634412	    -12.61397953	      4.81505151	    -10.81474991	      6.91430354	     19.65577691	     -6.61358777	     -0.29124906	    -60.52193238	      3.39420350	     -5.74345004	     -0.92337836	     -7.26517590	     -0.00505309	      0.45249737
      0.90033333	      4.32114262	     -3.27576563	      7.06428362	     -0.44751865	      1.04238277	      0.35291335	      1.15750763	     10.06315319	     -0.71734930	    -12.37428651	      4.92942788	    -10.67314886	      6.89422170	     19.94176847	     -6.48628486	     -0.47422508	    -59.53949090	      3.68724024	     -5.81590612	     -0.95324694	     -7.27474583	     -0.10336803	      0.74341367
      0.90450000	      4.32409059	     -3.20703872	      6.83562016	     -0.44275381	      1.04280831	      0.35331779	      0.70465477	     10.02584271	     -0.50267511	    -12.11093295	      5.05777819	    -10.52927022	      6.85859140	     20.16530656	     -6.37912778	     -0.65854545	    -58.50579516	      3.92247328	     -5.89389501	     -1.00144899	     -7.31342034	     -0.19236188	      1.15166382
      0.90866667	      4.28744565	     -3.14195494	      6.58630245	     -0.43801761	      1.04312855	      0.35373622	      0.31069920	      9.98372857	     -0.26227322	    -11.87860245	      5.16431707	    -10.39896344	      6.81314493	     20.41525479	     -6.27345445	     -0.85489554	    -57.43213910	      4.14590756	     -5.99375636	     -1.05653847	     -7.32856613	     -0.27394826	      1.49702264
      0.91283333	      4.25004592	     -3.07193643	      6.32563107	     -0.43326802	      1.04341616	      0.35416631	     -0.08014780	      9.93291116	     -0.01395569	    -11.65507032	      5.28267878	    -10.27641203	      6.76788530	     20.64127615	     -6.16787192	     -1.06646015	    -56.30733490	      4.32828495	     -6.11206892	     -1.11133869	     -7.33704813	     -0.36164236	      1.81102968
      0.91700000	      4.21761238	     -3.00298995	      6.05845209	     -0.42851192	      1.04368858	      0.35459307	     -0.47475470	      9.87999051	      0.24330000	    -11.43351512	      5.40284798	    -10.16238082	      6.72188506	     20.83964637	     -6.06722341	     -1.28727090	    -55.13222953	      4.47033905	     -6.25246007	     -1.16799532	     -7.34465339	     -0.44727926	      2.13342822
      0.92116667	      4.15130324	     -2.94116569	      5.77290002	     -0.42376701	      1.04385478	      0.35504479	     -0.81521212	      9.82790093	      0.51503313	    -11.24902016	      5.52788185	    -10.05991947	      6.69573135	     21.05835003	     -5.97919370	     -1.52633358	    -53.92125547	      4.59905329	     -6.38542981	     -1.20427472	     -7.32569353	     -0.52470013	      2.35324204
      0.92533333	      4.11836853	     -2.89668289	      5.51101333	     -0.41899973	      1.04402897	      0.35545097	     -1.20930180	      9.79454551	      0.76970268	    -11.01797635	      5.65077253	     -9.95243526	      6.64403554	     21.22978688	     -5.90376743	     -1.73590231	    -52.67005362	      4.66309068	     -6.58763510	     -1.27225875	     -7.31305676	     -0.58545839	      2.78187558
      0.92950000	      4.04231344	     -2.85096974	      5.21840712	     -0.41424495	      1.04411591	      0.35589081	     -1.53316106	      9.75160571	      1.05687282	    -10.84092105	      5.77302697	     -9.85397062	      6.61297482	     21.42247391	     -5.83502639	     -1.97859906	    -51.37398746	      4.73753309	     -6.75140420	     -1.31870326	     -7.28083857	     -0.64282087	      3.00986897
      0.93366667	      3.99573991	     -2.80985337	      4.95107624	     -0.40946333	      1.04421251	      0.35628267	     -1.90713328	      9.71312891	      1.32039620	    -10.61995520	      5.89252824	     -9.74553037	      6.55237340	     21.56688271	     -5.75990572	     -2.18605363	    -50.03213419	      4.73994923	     -7.00759271	     -1.40554610	     -7.25207852	     -0.69610800	      3.43624562
      0.93783333	      3.90639877	     -2.77272938	      4.65422482	     -0.40469771	      1.04418829	      0.35671824	     -2.20641865	      9.67233236	      1.60837913	    -10.46343900	      6.03296541	     -9.65951232	      6.51718882	     21.73874050	     -5.70326011	     -2.43598800	    -48.65821205	      4.76192451	     -7.20224920	     -1.46355534	     -7.19694398	     -0.74576150	      3.66063392
      0.94200000	      3.83073181	     -2.75283176	      4.39163083	     -0.39990238	      1.04414462	      0.35707990	     -2.54006679	      9.64763454	      1.86457988	    -10.25513187	      6.16478731	     -9.56841374	      6.45736293	     21.88635918	     -5.64859271	     -2.64270723	    -47.24889888	      4.71974322	     -7.49414830	     -1.55845783	     -7.12921729	     -0.76907260	      4.05027466
      0.94616667	      3.74099063	     -2.73340408	      4.09875094	     -0.39513865	      1.04404558	      0.35748821	     -2.83412181	      9.62048981	      2.16283578	    -10.10308210	      6.29751313	     -9.47625823	      6.42010144	     22.02646111	     -5.60783167	     -2.88333444	    -45.80159060	      4.71058535	     -7.70924559	     -1.62438693	     -7.07386816	     -0.80286618	      4.26890339
      0.95033333	      3.65148672	     -2.72705513	      3.84640917	     -0.39033786	      1.04390114	      0.35780806	     -3.14600428	      9.60329978	      2.41057556	     -9.90614739	      6.42816255	     -9.38986422	      6.34440375	     22.15755714	     -5.55833503	     -3.06960419	    -44.31933519	      4.62632499	     -8.04727324	     -1.74661397	     -6.99153740	     -0.80428530	      4.67383786
      0.95450000	      3.56298290	     -2.71803897	      3.57984670	     -0.38554268	      1.04372593	      0.35814365	     -3.44584333	      9.58134991	      2.67369746	     -9.74062832	      6.57563474	     -9.31092650	      6.27219418	     22.26430146	     -5.51670176	     -3.28758381	    -42.79997347	      4.56180883	     -8.32338522	     -1.86564131	     -6.92159981	     -0.81044396	      4.96209480
